<mxfile host="app.diagrams.net" agent="Mozilla/5.0 (Macintosh; Intel Mac OS X 10.15; rv:133.0) Gecko/20100101 Firefox/133.0" version="24.8.3">
  <diagram name="Seite-1" id="16Vq2uS35AYMeI-_cgiH">
    <mxGraphModel dx="933" dy="558" grid="1" gridSize="10" guides="1" tooltips="1" connect="1" arrows="1" fold="1" page="1" pageScale="1" pageWidth="827" pageHeight="1169" math="0" shadow="0">
      <root>
        <mxCell id="0" />
        <mxCell id="1" parent="0" />
        <mxCell id="9DL1E27m6L1h5Hh4GkNS-24" value="" style="rounded=0;whiteSpace=wrap;html=1;movable=0;resizable=0;rotatable=0;deletable=0;editable=0;locked=1;connectable=0;fillColor=default;strokeColor=none;" parent="1" vertex="1">
          <mxGeometry y="60" width="510" height="280" as="geometry" />
        </mxCell>
        <mxCell id="9DL1E27m6L1h5Hh4GkNS-3" value="&lt;font face=&quot;Courier New&quot;&gt;not-fetched&lt;br&gt;&lt;/font&gt;" style="ellipse;whiteSpace=wrap;html=1;aspect=fixed;" parent="1" vertex="1">
          <mxGeometry x="80" y="80" width="80" height="80" as="geometry" />
        </mxCell>
        <mxCell id="9DL1E27m6L1h5Hh4GkNS-5" value="" style="endArrow=classic;html=1;rounded=0;entryX=0;entryY=0.5;entryDx=0;entryDy=0;" parent="1" edge="1">
          <mxGeometry width="50" height="50" relative="1" as="geometry">
            <mxPoint x="20" y="120" as="sourcePoint" />
            <mxPoint x="80" y="120" as="targetPoint" />
          </mxGeometry>
        </mxCell>
        <mxCell id="9DL1E27m6L1h5Hh4GkNS-14" style="edgeStyle=orthogonalEdgeStyle;rounded=0;orthogonalLoop=1;jettySize=auto;html=1;exitX=1;exitY=0.5;exitDx=0;exitDy=0;entryX=0;entryY=0.5;entryDx=0;entryDy=0;" parent="1" source="9DL1E27m6L1h5Hh4GkNS-6" target="9DL1E27m6L1h5Hh4GkNS-13" edge="1">
          <mxGeometry relative="1" as="geometry" />
        </mxCell>
        <mxCell id="9DL1E27m6L1h5Hh4GkNS-16" value="successful" style="edgeLabel;html=1;align=center;verticalAlign=middle;resizable=0;points=[];" parent="9DL1E27m6L1h5Hh4GkNS-14" vertex="1" connectable="0">
          <mxGeometry x="-0.0103" relative="1" as="geometry">
            <mxPoint x="-4" as="offset" />
          </mxGeometry>
        </mxCell>
        <mxCell id="9DL1E27m6L1h5Hh4GkNS-19" style="rounded=0;orthogonalLoop=1;jettySize=auto;html=1;exitX=1;exitY=1;exitDx=0;exitDy=0;entryX=0;entryY=0;entryDx=0;entryDy=0;" parent="1" source="9DL1E27m6L1h5Hh4GkNS-6" target="9DL1E27m6L1h5Hh4GkNS-18" edge="1">
          <mxGeometry relative="1" as="geometry" />
        </mxCell>
        <mxCell id="9DL1E27m6L1h5Hh4GkNS-21" value="error" style="edgeLabel;html=1;align=center;verticalAlign=middle;resizable=0;points=[];" parent="9DL1E27m6L1h5Hh4GkNS-19" vertex="1" connectable="0">
          <mxGeometry x="-0.0088" y="1" relative="1" as="geometry">
            <mxPoint as="offset" />
          </mxGeometry>
        </mxCell>
        <mxCell id="9DL1E27m6L1h5Hh4GkNS-6" value="&lt;font face=&quot;Courier New&quot;&gt;fetching&lt;/font&gt;" style="ellipse;whiteSpace=wrap;html=1;aspect=fixed;" parent="1" vertex="1">
          <mxGeometry x="240" y="80" width="80" height="80" as="geometry" />
        </mxCell>
        <mxCell id="9DL1E27m6L1h5Hh4GkNS-9" value="" style="endArrow=classic;html=1;rounded=0;entryX=0;entryY=0.5;entryDx=0;entryDy=0;" parent="1" target="9DL1E27m6L1h5Hh4GkNS-6" edge="1">
          <mxGeometry width="50" height="50" relative="1" as="geometry">
            <mxPoint x="160" y="120" as="sourcePoint" />
            <mxPoint x="200" y="110" as="targetPoint" />
          </mxGeometry>
        </mxCell>
        <mxCell id="9DL1E27m6L1h5Hh4GkNS-12" value="fetch" style="edgeLabel;html=1;align=center;verticalAlign=middle;resizable=0;points=[];" parent="9DL1E27m6L1h5Hh4GkNS-9" vertex="1" connectable="0">
          <mxGeometry x="-0.0793" y="-2" relative="1" as="geometry">
            <mxPoint as="offset" />
          </mxGeometry>
        </mxCell>
        <mxCell id="9DL1E27m6L1h5Hh4GkNS-10" value="&lt;div align=&quot;left&quot;&gt;&lt;font face=&quot;Courier New&quot;&gt;value: []&lt;/font&gt;&lt;br&gt;&lt;/div&gt;" style="text;html=1;align=left;verticalAlign=middle;resizable=0;points=[];autosize=1;strokeColor=none;fillColor=none;" parent="1" vertex="1">
          <mxGeometry x="80" y="160" width="90" height="30" as="geometry" />
        </mxCell>
        <mxCell id="9DL1E27m6L1h5Hh4GkNS-11" value="&lt;div align=&quot;left&quot;&gt;&lt;font face=&quot;Courier New&quot;&gt;value: [...]&lt;/font&gt;&lt;br&gt;&lt;/div&gt;" style="text;html=1;align=left;verticalAlign=middle;resizable=0;points=[];autosize=1;strokeColor=none;fillColor=none;" parent="1" vertex="1">
          <mxGeometry x="400" y="160" width="110" height="30" as="geometry" />
        </mxCell>
        <mxCell id="9DL1E27m6L1h5Hh4GkNS-13" value="" style="ellipse;whiteSpace=wrap;html=1;aspect=fixed;" parent="1" vertex="1">
          <mxGeometry x="400" y="80" width="80" height="80" as="geometry" />
        </mxCell>
        <mxCell id="9DL1E27m6L1h5Hh4GkNS-17" value="&lt;div align=&quot;left&quot;&gt;&lt;font face=&quot;Courier New&quot;&gt;value: []&lt;/font&gt;&lt;br&gt;&lt;/div&gt;" style="text;html=1;align=left;verticalAlign=middle;resizable=0;points=[];autosize=1;strokeColor=none;fillColor=none;" parent="1" vertex="1">
          <mxGeometry x="240" y="160" width="90" height="30" as="geometry" />
        </mxCell>
        <mxCell id="9DL1E27m6L1h5Hh4GkNS-18" value="" style="ellipse;whiteSpace=wrap;html=1;aspect=fixed;" parent="1" vertex="1">
          <mxGeometry x="400" y="220" width="80" height="80" as="geometry" />
        </mxCell>
        <mxCell id="9DL1E27m6L1h5Hh4GkNS-22" value="&lt;div align=&quot;left&quot;&gt;&lt;font face=&quot;Courier New&quot;&gt;value: []&lt;/font&gt;&lt;br&gt;&lt;/div&gt;" style="text;html=1;align=left;verticalAlign=middle;resizable=0;points=[];autosize=1;strokeColor=none;fillColor=none;" parent="1" vertex="1">
          <mxGeometry x="400" y="300" width="90" height="30" as="geometry" />
        </mxCell>
        <mxCell id="dixYZ9GQ8blRevRexCcX-1" value="&lt;font face=&quot;Courier New&quot;&gt;fetch failed&lt;/font&gt;" style="ellipse;whiteSpace=wrap;html=1;aspect=fixed;" vertex="1" parent="1">
          <mxGeometry x="407.5" y="227.5" width="65" height="65" as="geometry" />
        </mxCell>
        <mxCell id="dixYZ9GQ8blRevRexCcX-2" value="&lt;font face=&quot;Courier New&quot;&gt;fetched&lt;/font&gt;" style="ellipse;whiteSpace=wrap;html=1;aspect=fixed;" vertex="1" parent="1">
          <mxGeometry x="407.5" y="87.5" width="65" height="65" as="geometry" />
        </mxCell>
      </root>
    </mxGraphModel>
  </diagram>
</mxfile>
